<?xml version="1.0" standalone="no"?><!DOCTYPE svg PUBLIC "-//W3C//DTD SVG 1.1//EN" "http://www.w3.org/Graphics/SVG/1.1/DTD/svg11.dtd"><svg class="icon" height="512" viewBox="0 0 1024 1024" version="1.1" xmlns="http://www.w3.org/2000/svg"><path d="M628.288 512l319.68 319.68c16.064 16.064 16.064 42.048 0 58.112l-58.112 58.112c-16.064 16.064-42.048 16.064-58.112 0L512 628.288l-319.68 319.68c-16.064 16.064-42.048 16.064-58.112 0l-58.112-58.112c-16.064-16.064-16.064-42.112 0-58.112L395.712 512 76.032 192.32c-16.064-16.064-16.064-42.048 0-58.112l58.112-58.112c16.064-16.064 42.112-16.064 58.112 0L512 395.712l319.68-319.68c16.064-16.064 42.112-16.064 58.112 0l58.112 58.112c16.064 16.064 16.064 42.112 0 58.112L628.288 512z" /></svg>